<svg
    width="250"
    height="250"
    viewBox="0 0 250 250"
    fill="none"
    xmlns="http://www.w3.org/2000/svg"
>
    <path
        d="M143.094 185.169C157.972 184.216 170.148 177.946 179.31 166.22C189.288 153.45 193.033 138.623 192.587 122.656C192.22 109.519 188.779 97.2401 181.172 86.3684C172.021 73.2885 159.355 66.2405 143.092 64.8584C140.894 64.768 139.09 64.631 137.286 64.6295C106.041 64.6045 74.7971 64.5954 43.5527 64.5891C42.804 64.5889 42.0552 64.6601 41.3065 64.6979C41.1257 64.6606 40.9449 64.6233 40.4444 64.5909C37.238 64.6293 34.3511 64.6627 31.4642 64.6962C30.7663 64.2483 29.7826 63.9663 29.4121 63.3282C19.5906 46.4169 9.83239 29.4688 0.0662164 12.5254C0.0334914 12.4686 0.0421155 12.388 0 12.1141C0.321153 12.0702 0.642942 11.9869 0.964544 11.9876C49.2712 12.0961 97.6047 11.2587 145.876 12.6169C186.697 13.7655 218.231 32.9162 236.407 69.9672C255.884 109.671 254.433 149.765 232.035 188.133C216.604 214.567 192.735 229.981 162.791 235.68C154.629 237.234 146.197 237.924 137.879 238.008C109.997 238.289 82.1112 238.118 54.2269 238.12C53.7834 238.12 53.3398 238.12 52.7617 238.12C52.7617 184.328 52.7617 130.642 52.7617 76.6912C71.8869 76.6912 91.0004 76.6912 110.387 76.8864C110.661 113.193 110.661 149.305 110.661 185.512C118.049 185.512 125.05 185.549 132.05 185.496C135.732 185.469 139.412 185.283 143.094 185.169Z"
        fill="#3b82f6"
    />
</svg>
